<svg xmlns="http://www.w3.org/2000/svg" width="48" height="370.175" viewBox="0 0 48 370.175">
  <g id="Bracket_Right" data-name="Bracket Right" transform="translate(-1783 -395.998)">
    <path id="Subtraction_2" data-name="Subtraction 2" d="M48,0H24.049A28.228,28.228,0,0,0,12.158,3.471a22.329,22.329,0,0,0-8.223,7.871A29.119,29.119,0,0,0,.1,26.443C-.123,52.252.1,87.8.1,88.14V326.088H0v17.627a34.47,34.47,0,0,0,.839,6.812A32.909,32.909,0,0,0,2.9,356.862a24.33,24.33,0,0,0,4.061,6.352c4.134,4.6,9.866,6.933,17.038,6.944l7.8.01.1,0,.1,0,.032,0H48v-8.833H25.019c-7.726-.838-16.936-4.573-16.936-17.609,0-3.76.009-16.521.024-37.291v-.9c.059-83.394.2-278.686-.024-279.1a20.649,20.649,0,0,1,2.387-9.357A14.516,14.516,0,0,1,24.049,8.814H48V0Z" transform="translate(1831 766.173) rotate(180)" fill="rgba(0,184,0,0.4)"/>
  </g>
</svg>
