<svg xmlns="http://www.w3.org/2000/svg" width="48" height="370.175" viewBox="0 0 48 370.175">
  <g id="Bracket_Left" data-name="Bracket Left" transform="translate(-1046 -395.998)">
    <path id="Subtraction_1" data-name="Subtraction 1" d="M-5702-937.827h-23.951a28.228,28.228,0,0,1-11.892-3.471,22.329,22.329,0,0,1-8.223-7.871,29.119,29.119,0,0,1-3.835-15.1c-.222-25.809,0-61.354,0-61.7v-237.949h-.1v-17.627a34.47,34.47,0,0,1,.839-6.812,32.909,32.909,0,0,1,2.063-6.336,24.33,24.33,0,0,1,4.061-6.352c4.134-4.6,9.866-6.933,17.038-6.944l7.8-.01.1,0,.1,0,.032,0H-5702v8.833h-22.981c-7.726.838-16.936,4.573-16.936,17.609,0,3.76.009,16.521.024,37.291v.9c.059,83.394.2,278.686-.024,279.1a20.649,20.649,0,0,0,2.387,9.357,14.516,14.516,0,0,0,13.579,8.271H-5702v8.813Z" transform="translate(6796 1704)" fill="rgba(0,184,0,0.4)"/>
  </g>
</svg>
